<?xml version="1.0" encoding="UTF-8" standalone="no"?>
<!-- Created with Inkscape (http://www.inkscape.org/) -->
<svg xmlns:dc="http://purl.org/dc/elements/1.1/" xmlns:cc="http://creativecommons.org/ns#" xmlns:rdf="http://www.w3.org/1999/02/22-rdf-syntax-ns#" xmlns:svg="http://www.w3.org/2000/svg" xmlns="http://www.w3.org/2000/svg" xmlns:xlink="http://www.w3.org/1999/xlink" xmlns:sodipodi="http://sodipodi.sourceforge.net/DTD/sodipodi-0.dtd" xmlns:inkscape="http://www.inkscape.org/namespaces/inkscape" id="svg4156" version="1.1" inkscape:version="0.91 r13725" width="713.4375" height="645" viewBox="0 0 713.4375 645" sodipodi:docname="DragonFly3.svg">
  <metadata id="metadata4162">
    <rdf:RDF>
      <cc:Work rdf:about="">
        <dc:format>image/svg+xml</dc:format>
        <dc:type rdf:resource="http://purl.org/dc/dcmitype/StillImage"/>
        <dc:title/>
      </cc:Work>
    </rdf:RDF>
  </metadata>
  <defs id="defs4160"/>
  <sodipodi:namedview pagecolor="#ffffff" bordercolor="#666666" borderopacity="1" objecttolerance="10" gridtolerance="10" guidetolerance="10" inkscape:pageopacity="0" inkscape:pageshadow="2" inkscape:window-width="1600" inkscape:window-height="837" id="namedview4158" showgrid="false" inkscape:zoom="1.0387597" inkscape:cx="356.71875" inkscape:cy="322.5" inkscape:window-x="-8" inkscape:window-y="-8" inkscape:window-maximized="1" inkscape:current-layer="svg4156"/>
  <path style="fill:#000000" d="m 47.593354,643.86774 c -0.247587,-0.66632 0.709415,-5.43024 2.126673,-10.58649 7.688126,-27.97085 10.296904,-47.82752 8.646635,-65.8137 -1.717564,-18.71963 -3.611115,-25.30219 -8.309303,-28.88567 -4.296963,-3.27745 -4.180338,-5.71659 0.333266,-6.97009 1.933594,-0.53698 4.229008,-0.97869 5.100922,-0.98156 2.623569,-0.008 2.824463,-1.54905 1.224849,-9.39177 -1.298447,-6.36614 -1.365935,-8.86076 -0.447755,-16.55084 0.594625,-4.98018 1.429346,-9.97074 1.854937,-11.09013 1.576989,-4.1478 0.03281,-4.69124 -13.33003,-4.69124 -16.029837,0 -37.8406027,-1.30439 -41.746673,-2.49666 C 1.3710937,485.89809 0,484.95843 0,484.32144 c 0,-2.51875 11.277089,-11.2441 19.453125,-15.05134 2.707031,-1.26056 4.921875,-2.66929 4.921875,-3.13053 0,-0.46123 0.949219,-1.2833 2.109375,-1.82681 1.160156,-0.54353 4.781251,-3.31976 8.046877,-6.1694 3.265625,-2.84965 9.292709,-7.41762 13.393519,-10.15106 7.060569,-4.70629 7.535012,-5.24161 8.945385,-10.09313 1.204797,-4.14435 1.363138,-7.50515 0.828718,-17.58963 l -0.660648,-12.46639 3.096069,-2.82783 c 2.732305,-2.49557 3.765461,-2.82782 8.793387,-2.82782 6.27511,0 7.947318,-0.99147 7.947318,-4.71204 0,-2.41319 -0.209293,-2.49508 -10.546875,-4.12657 -21.204368,-3.3465 -33.113483,-7.74412 -39.473264,-14.57611 -2.277173,-2.44626 -2.492544,-3.09663 -1.443875,-4.3602 1.482459,-1.78626 15.410715,-8.33862 19.752214,-9.29217 1.699802,-0.37334 4.011255,-1.28207 5.136562,-2.0194 1.125308,-0.73733 6.404933,-2.14638 11.732501,-3.13123 5.327568,-0.98483 10.952112,-2.13854 12.498987,-2.56378 3.654176,-1.00455 6.295842,-6.25883 6.664468,-13.25566 0.378032,-7.17537 1.097317,-10.69956 3.171266,-15.53789 1.646935,-3.84214 2.037493,-4.14391 5.714282,-4.41511 2.336028,-0.1723 4.231553,-0.86495 4.644981,-1.69734 0.38415,-0.77344 2.268478,-4.57031 4.187409,-8.4375 1.918924,-3.86719 4.040494,-7.66406 4.714604,-8.4375 0.67411,-0.77344 1.5352,-2.67187 1.91353,-4.21875 0.37833,-1.54687 2.13799,-6.1875 3.91036,-10.3125 1.77236,-4.125 3.8077,-10.41492 4.52299,-13.9776 2.50007,-12.45239 7.53904,-15.80313 14.93111,-9.92865 3.73036,2.96452 4.32823,3.13423 7.78219,2.20911 4.00255,-1.07207 13.70932,-17.5519 18.46677,-31.35225 1.62646,-4.71803 3.20439,-7.20061 6.68977,-10.52515 4.46875,-4.2625 8.78336,-5.72666 10.18627,-3.45671 0.6675,1.08004 7.03831,1.24607 8.44283,0.22002 0.51856,-0.37882 2.06828,-2.16533 3.44382,-3.97002 1.37553,-1.80469 4.43173,-5.32065 6.79154,-7.81326 2.35981,-2.49259 4.29056,-5.06332 4.29056,-5.71272 0,-0.6494 2.42578,-3.71007 5.39062,-6.8015 2.96485,-3.09144 7.80981,-8.16476 10.76659,-11.27405 6.44597,-6.77845 14.14818,-11.18319 17.90595,-10.24004 1.40136,0.35172 4.17512,2.3162 6.16392,4.36553 4.19103,4.31857 6.81555,4.69786 9.18228,1.32704 5.4627,-7.78027 11.49305,-13.83257 21.42925,-21.50725 2.00269,-1.54688 5.7622,-4.57781 8.35445,-6.73542 2.59226,-2.1576 7.59285,-5.70581 11.11244,-7.88491 3.51959,-2.1791 8.15565,-6.04497 10.30235,-8.59084 7.012,-8.31581 11.10908,-9.14394 16.80009,-3.39577 3.71968,3.75704 3.9534,3.84653 8.61479,3.29867 2.63525,-0.30972 9.42461,-2.46116 15.08745,-4.78096 5.66284,-2.31981 11.35076,-4.22767 12.63982,-4.23968 1.28906,-0.012 3.79956,-0.90934 5.57888,-1.99405 4.75778,-2.90044 10.18004,-2.05978 15.04114,2.33193 2.41441,2.18128 4.68948,3.39728 6.35609,3.39728 2.95985,0 11.12587,-2.32013 22.71139,-6.45277 7.08729,-2.52808 7.93962,-3.08024 7.70539,-4.99174 -1.14988,-9.38398 -1.10652,-20.89622 0.14084,-37.391036 0.914,-12.086401 1.15406,-20.499173 0.64207,-22.5 -0.44976,-1.757637 -1.09404,-7.414454 -1.43173,-12.570704 -0.48506,-7.40662 -1.04427,-10.013378 -2.6634,-12.415469 -1.12718,-1.672258 -2.32002,-3.043352 -2.65075,-3.046875 -1.11541,-0.01189 -3.6938,-7.708556 -5.14803,-15.367248 -0.79453,-4.184349 -1.66608,-8.763098 -1.93678,-10.1749971 -0.39177,-2.0433649 0.17949,-3.238764 2.80011,-5.859375 C 397.70597,1.4815286 400.05782,0 401.12154,0 c 2.96912,0 11.58855,3.6472635 14.01352,5.9297338 1.19146,1.1214589 4.33012,3.0937037 6.97477,4.3827662 2.64466,1.289063 5.65615,3.506052 6.69218,4.926644 1.64452,2.254928 1.74097,2.977621 0.7596,5.691561 -1.3545,3.745796 -1.44718,16.895328 -0.19608,27.819295 0.50196,4.382812 1.35839,14.085938 1.90319,21.5625 0.5448,7.476562 1.42136,16.335937 1.94789,19.6875 0.52654,3.351562 1.17087,12.42188 1.43184,20.15625 0.55676,16.50083 1.2472,18.62843 6.17827,19.03863 4.57781,0.3808 25.42261,-5.06944 30.57561,-7.99453 3.42394,-1.94361 4.4501,-2.14126 6.5625,-1.26403 2.99845,1.2452 6.72267,6.39263 6.72267,9.29174 0,2.97848 2.23275,3.45122 9.77242,2.06913 3.6486,-0.66882 9.87398,-1.72075 13.83416,-2.33762 3.96018,-0.61688 7.8664,-1.6744 8.6805,-2.35004 0.81409,-0.67563 4.32394,-1.59519 7.79967,-2.04344 3.47572,-0.44825 8.23431,-1.07131 10.57463,-1.38455 5.67248,-0.75926 6.98442,0.82504 6.99039,8.44152 l 0.005,5.72069 3.75,-0.27708 c 2.0625,-0.1524 9.44531,-2.14136 16.40625,-4.41993 20.8885,-6.83756 22.30909,-7.18988 24.4248,-6.05759 1.04086,0.55706 2.14825,2.29176 2.46089,3.85491 0.31263,1.56315 1.09702,3.04493 1.7431,3.29287 1.98304,0.76095 8.31656,-1.38833 10.04716,-3.40951 1.3244,-1.54679 2.32631,-1.80178 5.2454,-1.33499 2.44802,0.39145 4.54319,0.0936 6.51567,-0.92647 1.59905,-0.8269 3.76941,-1.50346 4.82304,-1.50346 1.05362,0 6.07031,-1.86725 11.14822,-4.14944 5.07789,-2.28218 11.72009,-4.87258 14.76043,-5.75644 3.04034,-0.88384 7.02703,-2.38839 8.8593,-3.34342 2.63666,-1.37431 5.10822,-1.69562 11.85144,-1.54072 8.34153,0.19163 8.63829,0.12273 14.16472,-3.28837 3.10437,-1.91626 6.49561,-3.48411 7.53588,-3.48411 3.07962,0 4.85724,1.02728 4.85724,2.80697 0,2.30125 -8.17193,17.6007 -11.41242,21.36628 -1.45754,1.69372 -2.65008,3.50634 -2.65008,4.02805 0,1.71397 -8.33168,15.43494 -10.7546,17.71116 -1.30372,1.22479 -2.3704,2.76599 -2.3704,3.42489 0,0.65892 -2.57198,4.06585 -5.71552,7.57096 -3.14355,3.50512 -6.72555,7.8495 -7.96002,9.65419 -1.23446,1.80469 -3.17303,4.43939 -4.30792,5.85488 l -2.06343,2.57365 2.52344,2.6339 c 1.3879,1.44866 2.52345,3.29025 2.52345,4.09242 0,3.36404 -11.56334,17.45888 -16.50764,20.12156 -5.04197,2.71528 -5.31628,7.34609 -0.49833,8.41257 5.17453,1.14541 5.81464,1.51759 7.1924,4.18187 1.82532,3.52979 1.19981,5.94219 -4.11728,15.87915 -2.34517,4.38281 -5.10169,9.65625 -6.12562,11.71875 -1.02392,2.0625 -3.25822,5.40797 -4.9651,7.43438 -1.70689,2.0264 -3.10343,4.09232 -3.10343,4.59094 0,0.49861 -1.5328,2.77715 -3.40623,5.06342 -3.1452,3.83831 -3.2894,4.27367 -1.88169,5.68137 1.19075,1.19076 1.77229,1.27677 2.65623,0.39283 1.388,-1.388 4.94343,-1.46566 7.38082,-0.16121 2.71116,1.45097 2.32024,5.87666 -0.84298,9.54377 -1.461,1.69373 -4.09772,5.96272 -5.85938,9.48666 -1.76166,3.52393 -5.04559,8.57352 -7.29762,11.2213 -2.25202,2.64778 -6.11111,7.78019 -8.57574,11.40534 -2.46464,3.62517 -5.36816,7.12212 -6.45228,7.77102 -2.69231,1.61148 -2.49798,2.58939 1.28962,6.48935 1.79341,1.84661 2.97121,3.82961 2.61733,4.40666 -3.0771,5.01759 -6.20647,9.02254 -7.97607,10.20774 -1.16642,0.7812 -3.15651,3.41693 -4.42243,5.85718 l -2.30167,4.43681 2.03477,1.64766 c 1.11913,0.90621 3.63144,1.94112 5.58292,2.2998 3.32367,0.61087 22.11372,8.29049 24.17315,9.87971 0.51562,0.3979 5.15625,2.95435 10.3125,5.68103 11.22046,5.93346 23.8178,14.62906 31.40332,21.67686 1.28745,1.19619 4.02964,3.40754 6.09375,4.91413 2.06411,1.50658 5.3634,4.24877 7.33177,6.09375 5.65073,5.29651 24.12447,25.90458 26.02877,29.03594 1.66671,2.74068 7.86041,6.66231 10.52224,6.66231 1.4838,0 4.4014,2.93434 4.4014,4.42664 0,2.02223 -2.7641,1.93045 -10.42868,-0.34623 -17.51967,-5.20403 -33.8116,-8.76791 -40.08169,-8.76791 -1.74368,0 -6.38515,-0.82283 -10.31436,-1.82852 -3.92921,-1.00568 -9.67527,-2.45855 -12.76902,-3.22858 -3.09375,-0.77004 -9.84375,-2.91893 -15,-4.77531 -5.15625,-1.85637 -14.4375,-4.62872 -20.625,-6.16078 -6.1875,-1.53205 -15.3395,-4.13881 -20.33778,-5.79277 -4.99828,-1.65398 -9.32201,-2.773 -9.60829,-2.48671 -0.2863,0.28628 -0.90582,2.58287 -1.37672,5.10351 -0.47091,2.52064 -1.31515,4.73597 -1.87608,4.92295 -2.17579,0.72527 -1.02726,5.31218 1.82962,7.30699 3.94581,2.75513 13.1513,10.79059 14.9054,13.01088 0.80512,1.0191 5.28173,5.65973 9.94805,10.3125 8.26021,8.23626 11.30648,11.56336 21.98455,24.01123 2.83594,3.30598 8.14169,9.17492 11.79057,13.04211 3.64887,3.86719 7.14113,7.66406 7.76056,8.4375 7.72414,9.64447 19.05184,24.39083 21.43173,27.89975 1.65776,2.4442 4.39995,6.33337 6.09375,8.6426 1.6938,2.30923 3.87566,5.4733 4.84857,7.03125 0.97291,1.55796 3.54785,4.94202 5.72207,7.52015 5.6837,6.73954 8.77677,12.54245 9.25316,17.35984 0.47974,4.85126 1.66883,7.91086 4.38399,11.28032 1.94696,2.41615 1.77445,5.04361 -0.38557,5.8725 -1.20183,0.46118 -13.0637,-3.12363 -18.01463,-5.44426 -1.59339,-0.74686 -5.39026,-2.00563 -8.4375,-2.79726 -3.04725,-0.79163 -9.97014,-3.05344 -15.3842,-5.02623 -5.41406,-1.97279 -12.16406,-4.3466 -15,-5.27513 -2.83594,-0.92853 -10.00781,-4.28733 -15.9375,-7.46399 -5.92969,-3.17667 -12.04687,-6.3801 -13.59375,-7.11874 -1.54687,-0.73864 -7.97502,-4.40162 -14.28477,-8.13997 -6.30975,-3.73833 -13.67195,-7.91163 -16.36045,-9.274 -2.68848,-1.36236 -5.96346,-3.22788 -7.27772,-4.14559 -1.31426,-0.91771 -5.53494,-3.68109 -9.3793,-6.14087 -3.84435,-2.45976 -8.69591,-6.03291 -10.78125,-7.94033 -5.60313,-5.12509 -14.89917,-9.69575 -18.09697,-8.8979 -4.25163,1.06079 -11.75321,5.16173 -13.18731,7.2092 -1.72075,2.45671 -9.40397,7.34866 -11.54169,7.34866 -0.89987,0 -1.90997,0.44308 -2.24467,0.98463 -0.80165,1.2971 1.75868,6.60642 4.29096,8.89811 2.99943,2.71445 3.9099,4.86127 2.87876,6.78795 -0.99217,1.85391 -8.11835,5.68523 -12.65155,6.80201 -1.6096,0.39654 -6.96471,1.7731 -11.90023,3.05904 -6.10482,1.59059 -10.35797,2.18205 -13.30359,1.85003 -5.30944,-0.59845 -9.12897,0.26548 -9.12897,2.06487 0,0.74163 1.47655,2.52657 3.28122,3.96652 2.63508,2.10253 3.2784,3.26424 3.2669,5.89934 -0.007,1.80469 -0.32427,3.73916 -0.7031,4.29884 -0.37882,0.55968 -4.06377,1.53343 -8.18877,2.1639 -4.125,0.63048 -8.55469,1.34077 -9.84375,1.57842 -10.31114,1.901 -22.12594,2.91489 -24.46506,2.09947 -1.45066,-0.50571 -3.35177,-0.77938 -4.22472,-0.60817 -1.35174,0.26512 -1.20489,0.76529 0.99005,3.37201 1.41746,1.6834 2.35593,3.63736 2.08548,4.34215 -0.62556,1.63017 -6.49408,2.33438 -11.3908,1.36688 -2.07691,-0.41036 -9.84493,-0.29772 -17.26226,0.25031 -10.09083,0.74557 -14.47251,0.72024 -17.40427,-0.1006 -2.2746,-0.63685 -7.34381,-0.92169 -12.08445,-0.67903 -9.73357,0.49823 -11.86897,1.82164 -11.86897,7.35576 0,2.95858 -0.37684,3.68142 -2.15138,4.1268 -7.07588,1.77593 -50.27341,-0.004 -71.14733,-2.93092 -4.33026,-0.60727 -4.41159,-0.57019 -5.74405,2.61884 -2.06397,4.93977 -5.44049,5.94287 -15.45019,4.58997 -4.48982,-0.60684 -11.32736,-0.98833 -15.19455,-0.84775 -3.86719,0.14058 -9.35156,-0.0472 -12.1875,-0.41719 -2.83594,-0.37003 -10.00781,-1.09944 -15.9375,-1.62092 -5.92969,-0.52147 -12.05174,-1.3141 -13.60457,-1.76139 -3.09159,-0.89054 -8.75549,-0.38243 -10.41448,0.93429 -0.57766,0.45849 -1.26797,2.45649 -1.53401,4.44 -0.26605,1.98352 -1.21014,4.71504 -2.09798,6.07005 l -1.61425,2.46366 -17.47673,-0.4017 c -9.6122,-0.22094 -21.06267,0.0204 -25.44548,0.5364 -12.66294,1.49073 -22.77587,3.59398 -24.41554,5.07785 -0.83234,0.75327 -2.77733,1.36957 -4.3222,1.36957 -5.62322,0 -23.372735,7.48443 -33.13726,13.97297 -3.563037,2.36765 -9.225321,4.77703 -11.226478,4.77703 -4.300832,0 -3.334599,-4.53015 1.635141,-7.6663 5.698507,-3.59604 11.806907,-7.26034 13.997798,-8.39699 1.13449,-0.58858 2.479813,-2.26665 2.989606,-3.72905 0.509792,-1.46239 2.152331,-3.85679 3.650086,-5.32089 1.497756,-1.46411 4.970163,-6.01023 7.716457,-10.10251 5.02652,-7.49008 15.81411,-20.1762 23.06819,-27.12801 2.15217,-2.0625 4.54935,-5.01563 5.32704,-6.5625 0.77771,-1.54688 2.50878,-3.83526 3.84684,-5.08529 2.7652,-2.58332 3.30709,-6.63346 0.88752,-6.63346 -1.39719,0 -12.70997,10.33513 -18.94269,17.30568 -4.37184,4.88936 -18.845207,20.62318 -20.058454,21.80528 -10.088571,9.82962 -20.224743,21.48872 -21.652406,24.9056 -0.766997,1.83568 -2.589933,4.10686 -4.050969,5.04707 -5.265779,3.38865 -8.391041,6.90101 -10.05497,11.3004 -2.433365,6.43376 -8.354571,17.4308 -9.595329,17.82073 -0.581003,0.1826 -1.25894,-0.21319 -1.506528,-0.87952 z M 681.84775,567.42187 c -0.81176,-2.44921 -2.20578,-5.29687 -3.09782,-6.32812 -1.72711,-1.99664 -6.95596,-10.09678 -11.49844,-17.8125 -3.11997,-5.29947 -14.37997,-21.29381 -19.46997,-27.65625 -14.32639,-17.90775 -18.57176,-23.39356 -20.35144,-26.29789 -1.122,-1.83103 -3.63948,-4.85608 -5.59441,-6.72233 -3.53149,-3.37132 -11.73988,-12.16484 -21.07003,-22.57202 -2.68039,-2.9898 -7.64059,-7.37465 -11.02266,-9.7441 -3.38208,-2.36947 -6.57111,-4.79032 -7.08673,-5.37969 -0.51563,-0.58936 -2.41406,-2.10495 -4.21875,-3.36797 -1.80469,-1.26302 -4.3178,-3.52159 -5.58469,-5.01903 -1.26688,-1.49745 -4.84201,-3.9232 -7.94472,-5.39055 -6.23992,-2.95102 -9.84066,-2.99607 -26.78309,-0.33509 -4.38281,0.68835 -13.45313,1.52487 -20.15625,1.85891 -6.70313,0.33405 -13.66406,0.97557 -15.46875,1.42562 -1.80469,0.45004 -8.55469,1.26372 -15,1.80815 -17.58403,1.48534 -27.51804,2.81653 -28.52381,3.8223 -1.33091,1.33091 3.84018,6.42746 8.83631,8.70894 3.88309,1.77321 5.81189,1.91211 24.24213,1.74573 11.01285,-0.0994 20.43135,-0.43292 20.92999,-0.74111 0.92024,-0.56873 6.66696,-1.23568 28.23626,-3.27702 10.71125,-1.01372 12.34976,-0.97012 15.23437,0.40546 6.35636,3.03114 3.46002,4.89673 -8.96342,5.77352 -4.89394,0.34539 -11.32076,1.03584 -14.2818,1.53433 -2.96106,0.49849 -15.40637,1.0876 -27.65625,1.30913 -17.95875,0.32478 -22.32616,0.65384 -22.54944,1.69893 -0.15231,0.71288 1.8777,3.20388 4.51111,5.53557 6.15116,5.44639 7.233,5.56908 37.75096,4.28111 24.93285,-1.05225 28.79609,-0.71999 28.79609,2.47662 0,2.5772 -7.44135,3.52896 -29.29164,3.74647 -11.73133,0.11679 -21.58016,0.46281 -21.8863,0.76894 -0.30613,0.30614 1.24195,1.74837 3.44018,3.20497 3.81197,2.52589 4.63537,2.67206 17.80734,3.16101 14.3568,0.53294 18.0537,1.54113 15.76469,4.29923 -0.70942,0.8548 -3.19351,1.28186 -7.45624,1.28186 -3.5158,0 -6.62957,0.3838 -6.9195,0.8529 -1.07849,1.74503 0.62672,3.60081 4.32749,4.70958 2.53982,0.76095 5.74139,3.07514 9.58814,6.93059 8.31425,8.33307 13.39257,12.50429 19.78209,16.24858 3.09375,1.81295 6.89063,4.47695 8.4375,5.91999 2.5215,2.35225 16.38877,10.31318 27.65625,15.87692 7.11073,3.51118 11.87457,6.128 13.23398,7.26954 4.53102,3.80478 22.39386,11.66324 40.14016,17.65896 11.12079,3.75724 22.53992,7.70668 25.37586,8.77654 2.83594,1.06986 6.07987,1.95896 7.20872,1.97579 2.03152,0.0303 2.0374,-0.0148 0.57653,-4.42252 z M 428.82957,555.36845 c 1.8541,-0.71149 1.9637,-4.11845 0.13249,-4.11845 -0.74275,0 -3.1291,-2.10938 -5.30301,-4.6875 -2.17391,-2.57813 -4.44579,-4.6875 -5.04863,-4.6875 -0.60284,0 -2.07278,-1.03964 -3.26651,-2.31032 -3.28076,-3.4922 -2.16481,-9.5399 3.01854,-16.35856 2.18971,-2.88055 4.40318,-5.91533 4.9188,-6.74394 0.51562,-0.82862 2.17056,-3.35987 3.67762,-5.625 1.50706,-2.26514 3.33454,-6.47509 4.06106,-9.35545 1.95985,-7.77008 4.06988,-9.78978 14.19449,-13.58686 4.84449,-1.81686 9.37965,-3.08407 10.07812,-2.81605 0.69848,0.26803 1.26996,1.51443 1.26996,2.76978 0,2.22354 -5.80583,19.91528 -7.6968,23.45395 -0.5206,0.97422 -1.29427,2.98375 -1.71926,4.46563 -0.71246,2.48419 -0.48588,2.84067 2.90515,4.57064 4.6107,2.3522 16.96849,4.77279 20.62895,4.0407 1.79033,-0.35807 2.75696,-1.12649 2.75696,-2.19165 0,-1.20698 -1.67156,-2.15647 -6.32813,-3.59455 -3.48046,-1.07487 -7.12716,-2.07699 -8.10376,-2.22694 -0.97661,-0.14995 -2.60825,-1.3889 -3.62587,-2.75324 l -1.85022,-2.4806 4.27356,-12.98815 c 5.61235,-17.05703 6.32169,-19.87025 5.187,-20.57152 -1.27931,-0.79066 -17.81995,3.33754 -19.6264,4.89833 -3.83105,3.31007 -5.8934,0.0793 -3.67465,-5.75648 1.22233,-3.21495 0.28037,-6.8114 -1.97116,-7.52601 -3.24572,-1.03015 -15.41605,2.3809 -21.79523,6.10868 -11.12883,6.50331 -15.34716,6.93097 -17.98825,1.82367 -0.98973,-1.91393 -2.12297,-2.74606 -3.73972,-2.74606 -2.05949,0 -2.31716,0.39433 -2.2973,3.51562 0.033,5.19472 1.54401,10.81512 3.2411,12.05606 0.93697,0.68513 2.61183,0.82902 4.50465,0.387 3.79855,-0.88705 23.65059,-10.68096 25.59855,-12.62892 1.85908,-1.85908 3.57794,-1.84733 5.14023,0.0351 2.25627,2.71865 -1.51648,11.95441 -14.70992,36.01013 -0.70698,1.28906 -1.28803,2.91125 -1.29121,3.60486 -0.009,2.04453 -5.55429,11.62667 -8.51865,14.72102 -1.50541,1.57142 -2.73712,3.38211 -2.73712,4.02375 0,0.64164 2.84766,4.13242 6.32812,7.7573 3.48047,3.62487 6.69699,7.29856 7.1478,8.16375 0.45083,0.86519 1.48068,2.10041 2.28856,2.74494 1.53614,1.22553 7.39191,1.58066 9.94009,0.60282 z M 197.60152,546.1973 c 3.4676,-1.74774 8.62504,-4.71248 11.46098,-6.58831 2.83594,-1.87584 6.72364,-4.10653 8.63933,-4.95711 3.12763,-1.38868 3.53641,-1.98402 4.00559,-5.83356 0.28738,-2.35789 0.91657,-6.99363 1.39819,-10.30166 0.48163,-3.30802 0.66351,-6.3579 0.40419,-6.7775 -0.25933,-0.4196 -7.9e-4,-1.64246 0.57453,-2.71746 1.24236,-2.32135 3.85827,-1.97981 11.82652,1.54414 2.79406,1.23566 6.31459,2.24666 7.8234,2.24666 2.35454,0 2.82455,-0.43315 3.31672,-3.05663 0.31538,-1.68115 0.12356,-4.23986 -0.42628,-5.68604 -0.54983,-1.44616 -0.99969,-4.28278 -0.99969,-6.30357 0,-2.70117 -0.6964,-4.45359 -2.62969,-6.61731 -2.3799,-2.66357 -2.7683,-2.80453 -4.08887,-1.48396 -0.80255,0.80254 -1.72903,3.14671 -2.05884,5.20924 -0.64706,4.04653 -0.99041,4.26317 -8.33895,5.2617 -3.26685,0.44391 -4.58273,0.27688 -4.91845,-0.62431 -0.25209,-0.6767 -0.14348,-5.871 0.24135,-11.54287 l 0.6997,-10.3125 3.55456,-0.29329 c 4.54678,-0.37516 13.84075,4.64059 21.68332,11.702 8.87823,7.9939 9.30784,7.75311 15.76931,-8.83848 2.9602,-7.60113 8.33911,-19.00534 11.95312,-25.3427 3.61402,-6.33736 6.57094,-12.0914 6.57094,-12.78676 0,-2.15603 -3.35057,-5.5759 -4.88573,-4.9868 -0.78529,0.30134 -2.74792,3.21935 -4.36141,6.48446 -1.61349,3.26512 -4.39544,8.25688 -6.18211,11.09282 -1.78667,2.83594 -3.73487,6.63281 -4.32933,8.4375 -0.59447,1.80469 -2.24998,5.17969 -3.67892,7.5 -1.42894,2.32031 -3.0886,5.76348 -3.68813,7.65147 -1.28997,4.06227 -3.34117,5.12639 -6.05847,3.14302 -5.29562,-3.8653 -9.06937,-6.08783 -11.27811,-6.64218 -1.33678,-0.33551 -2.66235,-0.98516 -2.94573,-1.44367 -0.28337,-0.4585 -1.14074,-0.83364 -1.90527,-0.83364 -0.76452,0 -4.63316,-1.89844 -8.59694,-4.21875 -6.73694,-3.94365 -10.82425,-5.16687 -11.7472,-3.51563 -0.21616,0.38672 -0.0348,3.65625 0.40302,7.26563 0.4378,3.60937 1.01638,15 1.28572,25.3125 0.42687,16.34447 0.27787,19.34402 -1.16147,23.38006 -1.37622,3.85907 -2.35367,4.9976 -5.86992,6.83722 -2.32031,1.21395 -6.11719,4.01025 -8.4375,6.21402 -2.32031,2.20376 -5.38211,4.49833 -6.80401,5.09904 -3.43012,1.44915 -6.18172,7.00323 -4.48336,9.04963 0.66245,0.79821 1.37426,1.45128 1.58182,1.45128 0.20754,0 3.21448,-1.42997 6.68207,-3.1777 z m 198.78705,-25.49307 c 3.40436,-1.28139 6.94556,-3.01381 7.86933,-3.84982 1.58518,-1.43455 2.36307,-4.97941 1.09271,-4.97941 -0.32278,0 -4.31152,1.49019 -8.86384,3.31155 -7.92512,3.17078 -8.41815,3.25255 -11.59852,1.92371 -3.65285,-1.52626 -4.47095,-2.99512 -6.30623,-11.32264 -1.29792,-5.88932 -3.14972,-7.46654 -5.99446,-5.10561 -1.22004,1.01255 -1.21562,1.33635 0.0372,2.72072 0.78214,0.86425 1.82251,3.65142 2.31192,6.19369 1.18924,6.17753 3.60227,12.80215 5.01277,13.76184 1.75542,1.19436 9.5643,-0.0664 16.4391,-2.65403 z m -65.45107,-7.47561 c 0,-0.74152 1.39997,-2.93146 3.11106,-4.86655 1.71107,-1.93507 4.53144,-5.5315 6.26747,-7.99206 2.65354,-3.76098 3.01673,-4.86573 2.27957,-6.93413 -1.50877,-4.23355 -3.58425,-4.80395 -8.23516,-2.26328 -3.46525,1.89297 -4.89242,2.14803 -9.19174,1.64273 -4.45622,-0.52374 -5.52227,-0.30416 -8.56664,1.76454 -1.91238,1.2995 -3.47706,2.69271 -3.47706,3.09601 0,1.02972 5.88362,8.57412 6.68666,8.57412 0.36323,0 1.56725,1.46728 2.6756,3.26063 1.93957,3.13831 6.28867,6.18705 7.74711,5.4308 0.38672,-0.20052 0.70313,-0.97129 0.70313,-1.71281 z m 30.90597,-22.43107 c 5.3583,-2.77088 6.02272,-11.6369 1.24572,-16.62301 -2.81939,-2.94281 -5.63567,-3.28255 -9.71673,-1.17215 -7.60861,3.93456 -11.32654,16.30664 -5.55996,18.50178 2.83118,1.07773 11.41654,0.64536 14.03097,-0.70662 z m -47.09804,-2.12568 c 0.4119,-0.90234 0.72381,-5.07382 0.69313,-9.26995 -0.0499,-6.81547 -0.32826,-7.98658 -2.61016,-10.97829 -2.77279,-3.63534 -2.70991,-3.63624 -9.81903,0.14089 -5.31677,2.82484 -6.52708,5.53419 -5.03084,11.2619 2.06411,7.90152 4.81908,10.18557 12.53536,10.39263 2.46874,0.0663 3.70067,-0.38419 4.23154,-1.54717 z M 42.65625,482.86543 c 14.819485,-0.8963 26.247862,-2.30035 30.9375,-3.8009 1.546875,-0.49495 7.875,-1.48203 14.0625,-2.19352 7.731816,-0.88906 13.15568,-2.08169 17.34375,-3.81366 12.88161,-5.32715 29.66779,-10.86985 32.91958,-10.86985 0.92383,0 2.64877,-0.38622 3.83319,-0.85827 1.18441,-0.47205 11.01285,-3.73132 21.84098,-7.2428 10.82812,-3.51149 19.99014,-6.81667 20.36003,-7.34485 1.02884,-1.4691 -5.48933,-2.56737 -12.39128,-2.08785 -3.35156,0.23285 -9.89063,1.31169 -14.53125,2.39743 -18.13333,4.24254 -22.99758,5.06444 -27.18181,4.59281 -8.91231,-1.00454 -6.55953,-3.12043 5.47938,-4.92766 9.57444,-1.43727 12.79618,-2.57612 12.79618,-4.5233 0,-2.01066 -19.48173,-4.75487 -35.625,-5.01817 -7.99219,-0.13035 -17.358975,-0.70777 -20.815083,-1.28316 -6.057948,-1.00854 -10.122417,-0.63967 -10.122417,0.91865 0,1.55726 -5.028217,5.68974 -6.924716,5.69112 -1.089844,8.1e-4 -3.458097,0.82331 -5.262784,1.82777 -1.804688,1.00447 -5.496094,2.89693 -8.203125,4.20548 -2.707031,1.30853 -4.921875,2.76508 -4.921875,3.23676 0,0.4717 -1.221561,1.28346 -2.71458,1.80392 -1.493019,0.52047 -4.915358,2.46018 -7.605199,4.31047 -2.68984,1.85028 -5.337404,3.36415 -5.883475,3.36415 -0.546071,0 -1.659235,0.60307 -2.473698,1.34015 -2.366082,2.14127 -16.721044,9.85124 -22.06309,11.84995 -5.5810202,2.08812 -9.2821824,5.47177 -8.4259439,7.70309 1.0322536,2.69002 2.5330128,2.72048 35.5722359,0.72224 z m 30.178661,-21.33826 c -3.622392,-0.56728 -2.951358,-3.06863 1.227589,-4.57598 5.884529,-2.12255 31.77652,-1.19013 32.55553,1.17238 0.56542,1.71474 -2.47776,2.24394 -14.903246,2.59167 -6.357193,0.1779 -12.613222,0.52617 -13.902284,0.77393 -1.289063,0.24776 -3.528978,0.26487 -4.977589,0.038 z m 261.270419,15.33438 c 1.50761,-3.08714 1.60395,-4.13333 0.66822,-7.25652 -2.39618,-7.99774 -12.60341,-4.14495 -10.94794,4.13237 1.6001,8.00055 7.08436,9.66729 10.27972,3.12415 z m 58.2935,-10.07568 c 0.34897,-0.56464 -0.19032,-2.14667 -1.19844,-3.51562 -1.00811,-1.36895 -2.11942,-4.2942 -2.46959,-6.50056 -0.70086,-4.41615 -0.49804,-4.7103 7.89994,-11.45719 2.24633,-1.80469 6.16668,-5.34976 8.71188,-7.87794 4.22761,-4.19934 4.48598,-4.70029 2.98889,-5.79499 -2.00539,-1.46637 -3.49256,-0.98049 -9.11379,2.97768 -4.39012,3.09128 -10.10105,4.85629 -11.97193,3.70003 -1.24857,-0.77166 -0.16082,-2.93604 3.41033,-6.78577 4.11978,-4.44115 8.71888,-11.22289 8.71888,-12.85665 0,-3.4628 -5.4319,-1.00186 -15.60168,7.06842 -6.14225,4.87421 -9.71082,5.8746 -9.71082,2.72226 0,-1.95524 4.72816,-11.91636 7.65158,-16.12009 0.95557,-1.37405 1.99585,-4.38383 2.31172,-6.68838 0.5639,-4.11409 0.53017,-4.18166 -1.85934,-3.72487 -2.10354,0.40211 -4.37386,2.55435 -11.39487,10.80217 -1.73639,2.03981 -3.62619,2.0896 -5.56904,0.14675 -1.54284,-1.54283 -1.39766,-6.04515 0.48084,-14.91237 0.59359,-2.80197 0.46384,-4.08283 -0.51326,-5.06654 -2.59195,-2.60951 -8.15423,3.25879 -10.72938,11.31967 -1.40907,4.41075 -3.42158,6.17207 -5.53496,4.84414 -1.20432,-0.75672 -1.69866,-3.0527 -2.1586,-10.02568 -1.16534,-17.66717 -6.86976,-18.63117 -13.0096,-2.19853 -2.43909,6.52794 -3.52099,6.13888 -6.00693,-2.1601 -1.85604,-6.19619 -3.95976,-9.14011 -5.45964,-7.64023 -0.50161,0.50161 -1.19302,4.52583 -1.53646,8.94271 -0.66605,8.56577 -1.83629,11.084 -4.22832,9.0988 -0.76215,-0.63252 -1.66518,-2.49199 -2.00675,-4.13215 -1.38086,-6.63057 -5.7279,-9.45356 -8.00512,-5.19855 -1.04887,1.95986 -0.75972,9.7269 0.61864,16.6172 0.44291,2.21405 0.24574,3.3943 -0.66323,3.97001 -2.05593,1.30217 -2.38477,1.12226 -7.74417,-4.23715 -3.30499,-3.30499 -6.0197,-5.19209 -7.75475,-5.39063 -1.98931,-0.22763 -2.7502,-0.8754 -2.98586,-2.54202 -0.39118,-2.76653 -17.94289,-20.45563 -21.07734,-21.24233 -1.22245,-0.30682 -3.86993,-0.42302 -5.88327,-0.25824 -5.78549,0.47354 -5.49177,3.34169 1.01804,9.94086 2.90741,2.94732 6.63004,7.1822 8.27251,9.41085 6.92805,9.40058 6.77887,9.28045 9.01349,7.25815 2.4232,-2.19296 3.80661,-1.16333 5.22386,3.88796 1.27349,4.53893 2.91141,4.87414 3.68434,0.75405 0.80319,-4.28137 1.86351,-3.57389 3.85835,2.5744 0.87634,2.70097 2.38515,6.22627 3.35294,7.834 2.6819,4.45539 2.32135,6.85512 -1.13378,7.54615 -5.82162,1.16432 -5.95872,7.33487 -0.28895,13.00464 3.24616,3.24617 3.55313,3.34573 9.596,3.11252 3.43341,-0.13251 7.04322,0.12306 8.02182,0.56794 1.59383,0.72455 1.70731,0.52416 1.08889,-1.92278 -0.3797,-1.50239 -0.9036,-4.48889 -1.16423,-6.63666 -0.4107,-3.38459 -0.16735,-4.10588 1.82589,-5.4119 3.67006,-2.40472 5.6879,-1.00824 5.08101,3.5164 -0.55643,4.14851 1.62486,10.95679 3.51041,10.95679 0.83387,0 1.02505,-2.12141 0.71814,-7.96875 -0.33301,-6.34468 -0.15545,-7.96583 0.87119,-7.9544 2.15518,0.024 3.3544,1.22844 4.88623,4.90752 1.73235,4.16067 3.18021,4.50261 3.96955,0.9375 1.93761,-8.75144 3.5734,-11.07667 5.72364,-8.13604 0.93572,1.27968 1.11712,3.2595 0.66488,7.25677 -0.60682,5.36354 -0.56906,5.4893 1.55551,5.18032 1.5169,-0.2206 2.84957,-1.66754 4.39313,-4.7698 1.51068,-3.03616 2.79832,-4.45312 4.04673,-4.45312 2.29759,0 2.3027,1.551 0.0248,7.54579 -1.56833,4.12752 -1.62114,4.82439 -0.40107,5.29258 0.77279,0.29654 2.65988,-0.38855 4.19354,-1.52244 1.53367,-1.13388 3.46313,-1.92899 4.28771,-1.76689 1.13321,0.22276 0.43588,1.53992 -2.85614,5.39493 -7.02687,8.22855 -5.71264,9.59709 4.12564,4.29607 7.26425,-3.91409 10.54121,-4.30122 10.0998,-1.19317 -0.20914,1.47257 -1.91191,2.96572 -5.64029,4.94595 -5.7353,3.04614 -10.12801,6.6837 -10.12801,8.38691 0,1.52869 11.85398,0.73475 16.11666,-1.07944 1.90322,-0.81002 3.68975,-2.07045 3.97008,-2.80096 0.76039,-1.98154 8.12206,-5.02281 9.8653,-4.07558 0.79982,0.43459 2.27789,2.40845 3.28461,4.38634 1.00673,1.97788 2.21854,4.1235 2.69292,4.76803 1.06425,1.44598 3.1189,1.52116 3.96926,0.14525 z m -148.56221,-4.81504 c 0.42125,-1.58788 0.0461,-4.79277 -0.9876,-8.4375 -0.91678,-3.23239 -2.1674,-7.69235 -2.77918,-9.91102 -1.2129,-4.39875 -3.0418,-5.74762 -5.2774,-3.89223 -1.10017,0.91307 -1.39328,2.95474 -1.26002,8.77676 0.29781,13.00953 2.00423,16.78634 7.34315,16.25255 1.6007,-0.16004 2.48457,-0.99243 2.96105,-2.78856 z M 311.25,458.90625 c 0,-0.77344 -0.84375,-2.25 -1.875,-3.28125 -1.63465,-1.63465 -4.6875,-2.60045 -4.6875,-1.48293 0,0.21565 -0.2352,1.005 -0.52267,1.75412 -0.28746,0.74913 0.16454,2.04925 1.00447,2.88918 1.94591,1.94592 6.0807,2.02811 6.0807,0.12088 z m -101.79543,-22.6003 c 2.78853,-1.07006 1.48551,-3.02943 -2.9702,-4.46634 -4.1784,-1.34748 -17.27747,-3.54815 -31.17187,-5.23695 -3.35156,-0.40736 -11.36719,-2.03243 -17.8125,-3.61128 -6.44531,-1.57883 -15.41822,-3.75504 -19.93979,-4.83601 -4.52157,-1.08097 -9.31809,-2.3825 -10.65894,-2.89229 -5.72746,-2.17757 -10.74262,-1.32823 -19.56405,3.31331 -8.500514,4.47268 -12.550054,7.46077 -11.514464,8.49636 0.309281,0.30928 8.512404,0.65767 18.229164,0.77417 16.47792,0.19759 18.1571,0.38231 24.95219,2.74496 4.08516,1.42041 9.30894,2.53312 11.89209,2.53312 2.53371,0 5.79436,0.47014 7.24589,1.04475 4.73975,1.87629 47.36536,3.65085 51.31248,2.1362 z m 482.8125,-2.8125 c 0.81562,-0.31298 1.48293,-1.07861 1.48293,-1.70139 0,-0.62278 -6.85547,-7.86767 -15.23438,-16.09976 -10.7825,-10.59357 -17.7664,-16.60297 -23.89901,-20.56424 -4.76554,-3.07824 -10.81962,-7.17884 -13.45351,-9.11244 -2.63388,-1.93359 -5.59026,-3.51562 -6.56973,-3.51562 -0.97948,0 -1.78087,-0.40891 -1.78087,-0.90869 0,-1.64448 -9.628,-7.06476 -22.96875,-12.9307 -22.23438,-9.77651 -22.18251,-9.76839 -30.96026,-4.84474 -2.59064,1.45315 -6.38752,3.04815 -8.4375,3.54445 -11.70654,2.83412 -39.09288,10.82903 -40.88177,11.93462 -1.48042,0.91494 -0.84582,4.76086 1.07194,6.49641 1.68513,1.52503 2.35954,1.58339 6.32812,0.54765 2.44308,-0.63762 7.18416,-1.78238 10.53572,-2.54393 3.35156,-0.76154 9.45829,-2.49583 13.5705,-3.85397 8.03953,-2.65522 15.63723,-3.29256 17.46663,-1.46521 1.99222,1.99001 -0.60146,3.64238 -7.82214,4.98329 -3.7448,0.69543 -8.49624,2.02047 -10.55874,2.94453 -2.0625,0.92406 -4.72141,1.68938 -5.90868,1.7007 -1.18728,0.0114 -5.08962,0.68722 -8.67187,1.50198 -5.17504,1.17704 -6.5132,1.83732 -6.5132,3.2138 0,1.41328 0.99296,1.84474 5.39063,2.34234 13.86727,1.56909 21.22791,3.27537 24.79588,5.74797 4.21587,2.9216 22.21962,9.56176 36.37599,13.41624 5.41406,1.47413 15.53906,4.57544 22.5,6.89178 14.91511,4.96323 27.13995,7.84589 38.8559,9.16236 4.66832,0.52455 11.23004,1.52619 14.5816,2.22583 7.25316,1.51413 8.74712,1.63788 10.70457,0.88674 z m -453.30233,-2.16319 c 2.39369,-1.51568 0.20131,-3.90148 -6.22206,-6.77101 -3.48503,-1.55688 -8.02393,-3.60457 -10.08643,-4.5504 -2.0625,-0.94584 -8.89366,-4.07695 -15.18037,-6.95803 -6.28669,-2.88108 -11.8945,-5.23832 -12.46179,-5.23832 -0.56729,0 -6.18144,-1.65017 -12.47588,-3.66704 -6.29445,-2.01686 -14.32667,-4.36554 -17.84938,-5.21926 l -6.4049,-1.55223 -11.66754,3.56843 c -15.06641,4.60795 -15.05461,5.52677 0.11443,8.90155 6.18086,1.37511 12.79185,2.53526 14.69107,2.57812 1.89923,0.0428 7.3836,1.28479 12.1875,2.75985 8.63991,2.6529 13.24158,3.90619 23.26561,6.33649 11.08538,2.68763 18.38752,4.79814 20.16895,5.82938 6.97183,4.03584 18.52242,6.1343 21.92079,3.98247 z m 228.84776,-1.07487 c 22.00264,-1.62249 32.4412,-2.56338 39.52642,-3.56276 9.74263,-1.37423 31.49259,-3.87465 35.94233,-4.132 5.1361,-0.29705 5.18962,-3.11731 0.1099,-5.79231 -2.00205,-1.05431 -5.57202,-4.17825 -7.93326,-6.94212 -4.13396,-4.83885 -4.43356,-5.00607 -8.07866,-4.50903 -5.56619,0.759 -13.13636,2.05433 -30.97298,5.29976 -8.76563,1.59494 -19.52344,3.27038 -23.90625,3.72322 -4.38281,0.45283 -10.03971,1.48968 -12.57087,2.3041 -2.53117,0.81441 -6.03576,1.48075 -7.78798,1.48075 -1.75223,0 -4.95471,0.40737 -7.11663,0.90527 -2.16192,0.4979 -6.35655,1.37156 -9.3214,1.94147 -5.79528,1.11398 -7.16542,3.08739 -3.19235,4.59795 1.20905,0.45968 2.87969,1.5172 3.71255,2.35006 2.95207,2.95206 7.45487,4.215 13.30793,3.73256 3.09375,-0.25501 11.32031,-0.88362 18.28125,-1.39692 z m -210.24008,-2.89032 c 1.44411,-1.4441 -2.4941,-9.24719 -6.05299,-11.99325 -3.79991,-2.93204 -11.2273,-7.88299 -17.14443,-11.42816 -2.83594,-1.6991 -7.26562,-4.68596 -9.84375,-6.63744 -2.57812,-1.95148 -4.95279,-3.54997 -5.27705,-3.55219 -0.32424,-0.002 -3.04161,-1.48059 -6.03859,-3.28528 l -5.44905,-3.28125 -16.69578,0 c -16.20924,0 -16.69578,0.056 -16.69578,1.92284 0,2.271 3.27955,3.83734 12.52288,5.98101 3.4738,0.80563 8.1713,2.30997 10.43888,3.34296 2.26757,1.03301 4.78726,1.87819 5.59929,1.87819 1.89756,0 17.24369,7.69559 23.93895,12.00462 2.83594,1.82519 7.47656,4.66436 10.3125,6.30926 2.83594,1.6449 7.66268,4.52531 10.7261,6.40092 5.87733,3.59846 7.90691,4.08969 9.65882,2.33778 z M 271.875,423.2439 c 0,-1.05278 -4.02896,-8.47843 -5.57502,-10.27515 -0.88738,-1.03125 -2.69519,-3.77515 -4.01736,-6.09758 -1.32216,-2.32241 -4.57112,-5.90835 -7.21991,-7.96875 -2.64879,-2.06039 -6.59414,-5.17693 -8.76746,-6.92564 -9.44953,-7.6033 -10.47207,-8.01589 -19.25732,-7.77024 -12.82072,0.35847 -12.4085,2.4014 1.93957,9.61236 5.11922,2.57278 11.53754,6.32508 14.26292,8.33844 2.72539,2.01336 6.21227,4.42582 7.74865,5.36103 1.53636,0.93521 6.29141,4.96991 10.56676,8.966 6.71009,6.27181 10.31917,8.63593 10.31917,6.75953 z m 154.86058,-5.67328 c 22.52881,-4.90079 29.0938,-6.20494 34.98317,-6.94948 3.60937,-0.45631 12.25781,-1.868 19.21875,-3.13709 6.96094,-1.26909 17.08594,-3.01806 22.5,-3.88659 16.38773,-2.62894 24.60907,-4.14404 25.0886,-4.62355 0.25054,-0.25055 0.22314,-1.06116 -0.0609,-1.80136 -0.401,-1.04498 -3.62267,-1.48427 -14.41269,-1.96523 -7.64295,-0.34068 -17.69313,-1.2244 -22.33376,-1.96381 -4.64062,-0.73942 -12.51262,-1.45529 -17.49333,-1.59083 -8.07899,-0.21985 -9.2925,-0.0339 -11.25,1.72325 -1.20679,1.08332 -2.94065,2.23338 -3.85302,2.55569 -4.17106,1.4735 -26.9769,6.46544 -32.9472,7.21176 -14.59191,1.82409 -20.23766,3.01561 -20.23766,4.27114 0,0.68779 1.44898,1.52235 3.21997,1.85458 4.42124,0.82944 6.54954,3.36773 5.832,6.95546 -0.52775,2.63873 -0.37611,2.83794 2.16017,2.83794 1.50029,0 5.81396,-0.67135 9.58594,-1.49188 z M 298.125,400.43037 c 0,-0.4508 -0.63892,-2.63051 -1.41982,-4.84382 -1.89776,-5.37884 -1.15976,-7.26514 3.11328,-7.95741 6.98897,-1.13228 8.2878,-2.30771 7.73952,-7.00414 -0.2831,-2.425 -3.86873,-4.68754 -7.42746,-4.68673 -3.39703,7.6e-4 -16.63883,2.47445 -18.10866,3.38285 -0.42453,0.26237 -0.77186,1.04025 -0.77186,1.72863 0,1.20751 9.03327,15.20705 11.97569,18.55962 1.48841,1.69589 4.89931,2.26746 4.89931,0.821 z m 131.71875,-4.80428 c 5.67187,-1.07009 14.06095,-2.54952 18.64239,-3.28763 4.58144,-0.73809 8.56414,-1.57624 8.85045,-1.86255 1.17288,-1.17289 -2.45283,-3.1805 -6.39909,-3.54329 -5.71202,-0.5251 -23.6096,-4.84915 -35.60011,-8.60098 -15.306,-4.78923 -6.85396,-5.45668 12.63136,-0.99748 3.60937,0.826 9.51562,1.9013 13.125,2.38955 3.60937,0.48824 11.20312,1.71294 16.875,2.72154 18.19597,3.23571 27.93492,4.65248 36.09375,5.25074 4.38281,0.32138 11.50448,1.18219 15.82593,1.91291 10.61452,1.79485 12.29907,1.73473 12.29907,-0.43891 0,-3.07857 -19.1336,-19.48778 -26.30714,-22.56135 -1.25764,-0.53883 -4.89829,-2.62712 -8.09034,-4.6406 -3.19204,-2.01349 -7.19985,-4.0753 -8.90625,-4.58178 -13.89654,-4.12473 -26.92366,-4.56942 -42.00877,-1.434 -5.41406,1.12531 -11.95313,2.32222 -14.53125,2.65982 -5.04406,0.66049 -16.70423,5.32431 -19.56378,7.8251 -2.41494,2.11198 -3.35307,4.958 -2.29773,6.97073 0.48712,0.92903 1.72212,4.93685 2.74442,8.90625 1.02231,3.9694 2.62396,8.27993 3.55923,9.57897 0.93527,1.29904 2.01641,3.35725 2.40253,4.57381 0.65095,2.05094 1.05288,2.17164 5.52244,1.65834 2.65121,-0.30447 9.46102,-1.42911 15.13289,-2.49919 z M 99.209334,387.48838 c -0.179072,-0.92986 -2.727637,-2.56058 -6.226948,-3.98437 -3.258091,-1.32565 -8.320577,-4.32715 -11.249969,-6.67002 -4.581875,-3.66449 -5.326167,-4.70164 -5.326167,-7.42187 0,-4.32725 1.827041,-4.57427 5.418491,-0.7326 1.660455,1.77615 4.492976,3.72783 6.294493,4.33709 3.441357,1.16384 8.266707,4.15957 14.537016,9.02506 7.075,5.48989 9.37681,6.08351 23.81727,6.14235 7.26575,0.0296 13.63313,-0.20741 14.14972,-0.52668 1.86063,-1.14994 0.86601,-2.48267 -3.19267,-4.27802 -2.27256,-1.00526 -6.80772,-3.43258 -10.07812,-5.39404 -3.27042,-1.96145 -7.8882,-4.29056 -10.26177,-5.17579 -2.37357,-0.88523 -8.49075,-4.15891 -13.59375,-7.27486 l -9.27818,-5.66535 -7.96875,0.47639 c -7.49763,0.44822 -21.493368,3.35395 -34.21875,7.10431 -3.09375,0.91179 -8.789063,2.40419 -12.65625,3.31645 -8.577351,2.02338 -12.40173,3.86303 -12.011424,5.77789 0.371889,1.82451 13.690455,6.49385 23.730174,8.31952 14.912985,2.71186 26.459402,3.97555 37.334366,4.08605 9.908668,0.10067 11.052212,-0.0544 10.781218,-1.46151 z m 74.855296,-5.59952 c 6.92404,-4.05775 5.39898,-6.58475 -6.72088,-11.13645 -3.60938,-1.35552 -8.03712,-3.38013 -9.83943,-4.49913 -4.25224,-2.64007 -10.18197,-5.31578 -11.78049,-5.31578 -0.6924,0 -5.54403,-2.18422 -10.7814,-4.85381 -9.29109,-4.73587 -9.61681,-4.82564 -13.40433,-3.69445 -2.13502,0.63765 -4.93654,1.37091 -6.2256,1.62945 -1.28906,0.25854 -3.29297,0.66345 -4.45312,0.89981 -1.47412,0.30031 -2.10938,1.09966 -2.10938,2.65426 0,1.87501 1.80446,3.22052 11.48438,8.56343 6.3164,3.48639 12.74999,7.25613 14.29687,8.37718 3.60761,2.61451 13.42167,6.9356 20.625,9.0811 7.04061,2.09702 13.39826,1.52355 18.90838,-1.70561 z M 210,382.48559 c 2.83594,-0.47776 8.95312,-1.518 13.59375,-2.31165 4.64062,-0.79365 14.76562,-1.86429 22.5,-2.37921 22.92687,-1.52637 45.62752,-4.19862 48.45399,-5.70384 0.86845,-0.46249 3.73281,-0.84089 6.36525,-0.84089 4.34635,0 5.12411,0.34467 8.46201,3.75 2.02166,2.0625 4.31398,3.75 5.09405,3.75 0.78006,0 3.29371,-0.91115 5.58588,-2.02477 3.36816,-1.63638 4.27929,-2.62017 4.74989,-5.12865 0.32025,-1.70714 1.62019,-4.33736 2.88873,-5.84494 1.26855,-1.50759 2.30645,-3.18603 2.30645,-3.72988 0,-2.72174 11.30816,-8.72226 18.59692,-9.8682 7.06086,-1.11013 27.92913,1.13597 35.56907,3.82836 3.75224,1.32233 7.04667,2.76734 7.32096,3.21116 0.27428,0.4438 1.36451,0.80692 2.42272,0.80692 1.71509,0 1.85266,-0.38174 1.26702,-3.51562 -0.84996,-4.54834 -1.5855,-5.35502 -7.38203,-8.09609 -8.13197,-3.84544 -14.85801,-4.7839 -25.51291,-3.55971 -5.12215,0.5885 -10.65103,1.58065 -12.2864,2.20476 -2.79009,1.06481 -3.14561,0.95041 -5.76676,-1.85554 -1.53635,-1.64467 -3.21589,-2.9903 -3.73231,-2.9903 -0.51643,0 -2.4986,-2.34969 -4.40482,-5.22153 -1.90622,-2.87184 -4.07864,-5.45668 -4.8276,-5.74408 -0.74896,-0.28741 -4.59904,-2.3674 -8.55573,-4.62222 -7.29106,-4.15499 -12.39563,-5.28694 -12.39563,-2.74875 0,0.74301 0.39464,1.59483 0.87698,1.89292 0.48234,0.29811 1.93275,2.84813 3.22315,5.6667 2.38202,5.20303 4.41186,8.21506 11.58524,17.19103 4.37318,5.4721 5.06552,8.48339 2.12713,9.25179 -1.03125,0.26968 -1.88146,0.75753 -1.88935,1.08411 -0.007,0.32657 -0.3996,1.20267 -0.87045,1.94686 -0.69101,1.09216 -1.66617,0.60638 -5.05692,-2.5191 -2.31046,-2.12971 -6.03205,-4.4261 -8.27018,-5.10309 -5.09723,-1.5418 -39.66301,-1.41421 -48.6006,0.1794 -3.35156,0.5976 -9.25781,1.63481 -13.125,2.30491 -3.86719,0.67011 -12.46527,2.95642 -19.10686,5.08069 -6.64159,2.12427 -15.74418,4.72359 -20.228,5.77626 -5.63546,1.32306 -9.57742,2.9085 -12.76814,5.13534 -2.53866,1.77175 -5.99775,4.12219 -7.68685,5.22321 -1.6891,1.10101 -3.49136,2.78712 -4.00503,3.7469 -0.78667,1.46993 -0.52418,1.83553 1.66485,2.31886 1.42933,0.31559 3.02065,0.70089 3.53628,0.85623 1.41839,0.42731 12.45572,-0.41695 18.28125,-1.39835 z m 182.8125,-2.3759 c 0,-5.34499 -4.90029,-10.43125 -13.59375,-14.10963 -5.00768,-2.11887 -29.96688,-3.01067 -37.79089,-1.3503 -6.48498,1.3762 -10.60276,4.04093 -8.89389,5.75547 0.88058,0.88351 3.37626,0.75636 11.38853,-0.5802 17.58941,-2.93416 31.62271,-0.0762 40.45695,8.23917 5.14595,4.84372 8.43305,5.64103 8.43305,2.04549 z m 135,-7.01072 c 3.60315,-0.78378 11.53711,-3.86126 17.01739,-6.60081 0.85174,-0.42578 4.22674,-1.4529 7.5,-2.28248 17.19892,-4.35891 24.23261,-7.25418 24.23261,-9.97483 0,-0.3923 -1.93152,-2.04219 -4.29226,-3.66643 -4.94976,-3.40551 -4.00819,-3.46337 -22.42649,1.37795 -31.905,8.38634 -37.96875,10.41101 -37.96875,12.67768 0,1.10911 7.14702,7.85212 9.1825,8.66343 2.12754,0.848 1.93725,0.85348 6.755,-0.19451 z m -334.72985,-3.2042 c 0.61861,-0.74538 3.4026,-1.86499 6.18664,-2.48803 2.78404,-0.62305 5.9011,-1.91465 6.9268,-2.87023 C 208.16377,362.70335 207.8717,360 205.70597,360 c -1.17221,0 -27.75568,-13.356 -29.92472,-15.03471 -0.51563,-0.39905 -3.42788,-1.44697 -6.47169,-2.32869 -5.36218,-1.55329 -5.87214,-1.53834 -16.40625,0.4809 -13.84557,2.65401 -15.0799,3.128 -14.44711,5.54776 0.27293,1.0437 1.39991,2.17257 2.5044,2.50861 4.2802,1.30221 22.87997,8.73951 26.41265,10.56136 2.04627,1.05529 5.61894,2.77923 7.93925,3.83099 2.32031,1.05176 5.68873,2.76088 7.48537,3.79804 3.82309,2.20697 8.6853,2.45777 10.28478,0.53051 z m 36.11641,-14.71417 c 4.40939,-1.4475 6.11344,-2.46077 6.11344,-3.63521 0,-2.47169 -1.49737,-3.30289 -12.66835,-7.0323 -5.66522,-1.89132 -12.62071,-4.51663 -15.45665,-5.83402 -7.72493,-3.58849 -19.6875,-4.11582 -19.6875,-0.86786 0,2.3558 5.24496,6.09328 12.65625,9.01869 4.125,1.62823 9.06754,4.21114 10.98342,5.7398 6.46754,5.1604 9.12344,5.54437 18.05939,2.6109 z m 284.01567,0.0515 c 3.64596,-1.07548 8.10558,-2.38629 9.91027,-2.91292 1.80469,-0.52663 5.60156,-1.92711 8.4375,-3.11217 2.83594,-1.18505 7.6875,-2.77469 10.78125,-3.53251 3.09375,-0.75782 6.89062,-1.8404 8.4375,-2.40572 1.54687,-0.56533 4.00004,-1.26573 5.45149,-1.55645 2.07025,-0.41467 2.57536,-0.97603 2.34375,-2.60483 -0.21788,-1.53219 -2.13766,-2.9973 -7.32649,-5.59132 -10.02738,-5.01292 -11.75358,-4.88683 -34.6875,2.53376 -6.61368,2.13995 -10.05213,3.01247 -31.63238,8.02685 -4.76499,1.1072 -8.90863,2.40951 -9.20809,2.89405 -0.64661,1.04623 4.19941,3.20397 9.3745,4.1741 2.02966,0.38048 6.24841,1.87635 9.375,3.32416 6.87296,3.18261 10.09579,3.31381 18.7432,0.763 z m -108.80915,-1.40733 c 0.79701,-0.30585 1.9187,-2.71645 2.52532,-5.42712 0.90692,-4.05253 0.82922,-5.90073 -0.45967,-10.93413 -2.79205,-10.90349 -10.82811,-16.03581 -25.32322,-16.17298 -5.84402,-0.0553 -7.51117,0.3675 -14.27533,3.62031 -8.19656,3.94164 -13.43518,9.08343 -13.43518,13.18684 0,4.23649 3.83309,2.72299 12.43072,-4.90829 3.84339,-3.4114 5.39329,-4.11753 11.17992,-5.09357 8.86531,-1.49533 15.61447,-0.1275 18.95404,3.84135 1.92628,2.28924 2.31813,3.74827 2.31813,8.63125 0,5.7416 1.09297,10.18723 3.0987,12.604 1.15181,1.38783 1.09963,1.37643 2.98657,0.65235 z m 20.75067,-5.48795 c 15.99417,-11.3745 16.89294,-12.22763 15.822,-15.01848 -0.81092,-2.11322 -3.3041,-1.76774 -6.96799,0.96557 -4.97757,3.71331 -9.31311,5.28964 -14.93687,5.43076 -4.91891,0.12343 -5.1719,0.25289 -5.74846,2.94161 -0.83662,3.90156 -0.95267,10.34101 -0.19993,11.09375 1.43917,1.43917 4.04346,0.26743 12.03125,-5.41321 z m -154.39084,-2.01477 c 3.32492,-0.69129 2.15967,-2.57554 -4.51541,-7.30165 -7.95569,-5.63281 -20.79325,-11.78692 -30.88433,-14.80546 -4.92975,-1.47463 -15.05317,2.02271 -15.05317,5.20041 0,2.53161 18.64977,14.1534 27.1875,16.94216 3.98976,1.30322 16.9216,1.28351 23.26541,-0.0354 z m 44.66902,0.60851 c 0.60492,-0.97878 -8.6363,-13.60871 -13.85497,-18.93553 -3.96717,-4.04939 -10.66633,-8.70581 -13.64602,-9.48501 -1.97453,-0.51636 -10.68834,0.21055 -20.74594,1.73063 -6.72697,1.01669 -7.08168,1.84968 -2.90545,6.82298 3.31567,3.9485 5.51439,5.3874 19.3117,12.63809 4.57243,2.40288 15.387,5.27762 22.25549,5.91598 3.51858,0.32702 6.61993,0.95463 6.89191,1.3947 0.65443,1.05889 2.0138,1.01758 2.69328,-0.0818 z m 157.53432,-5.76034 c 12.375,-3.12061 25.03125,-6.23874 28.125,-6.92918 13.29993,-2.96819 23.88378,-7.62701 22.48149,-9.89594 -0.51013,-0.82543 -7.69213,-2.14442 -13.57524,-2.49315 -2.32031,-0.13754 -7.03266,-0.50436 -10.47187,-0.81517 -3.94304,-0.35633 -9.78915,-0.003 -15.82473,0.95663 -9.68502,1.53977 -13.62542,2.93314 -15.8396,5.60105 -0.67011,0.80744 -1.73243,1.46807 -2.36071,1.46807 -0.62827,0 -3.21334,1.95647 -5.74459,4.34771 -2.53124,2.39125 -6.89187,5.87172 -9.69028,7.73438 -11.24705,7.48618 -6.70504,7.49126 22.90053,0.0256 z m -58.78147,-17.97213 c 0.34529,-6.60679 -1.414,-8.76636 -9.71469,-11.925 -7.2497,-2.75869 -12.4556,-3.33388 -16.93955,-1.87159 -3.92162,1.27889 -4.99637,2.33221 -5.01869,4.91861 -0.0186,2.16391 3.45416,3.44054 11.96512,4.39846 6.59988,0.74283 6.97907,0.9263 11.58489,5.60535 6.13987,6.23748 7.74976,6.01435 8.12292,-1.12583 z m 3.70217,-22.96369 c 0.56867,-3.99609 1.66042,-10.85156 2.42613,-15.23437 0.7657,-4.38281 1.64059,-10.99386 1.94419,-14.69122 l 0.55199,-6.72246 -2.79106,-0.61302 c -3.02445,-0.66429 -6.68073,0.1383 -7.67252,1.68418 -0.84464,1.31652 0.78421,5.35224 3.20185,7.93306 2.30353,2.459 1.54069,3.68457 -2.57326,4.13419 -3.59774,0.39322 -4.14419,2.90835 -1.42962,6.58001 2.25429,3.04909 1.94396,5.44526 -0.70523,5.44526 -2.00436,0 -3.96692,1.72116 -3.96692,3.47897 0,0.67593 0.901,3.14577 2.00223,5.48853 1.59322,3.38942 1.79754,4.70881 1.00022,6.45874 -1.26982,2.78694 -0.69641,3.32376 3.55031,3.32376 l 3.42776,0 1.03393,-7.26563 z m -17.7452,-0.70312 c 0.68175,-2.0625 1.60215,-7.75781 2.04533,-12.65625 1.02748,-11.35654 3.33859,-23.82923 5.6722,-30.61198 3.26804,-9.4987 2.11755,-11.0215 -6.31788,-8.36245 -4.89968,1.54448 -5.25026,1.87448 -7.86657,7.40485 -1.50609,3.18358 -2.73869,7.243 -2.73909,9.02092 -6.8e-4,2.98622 -0.6405,8.87763 -2.80022,25.78423 -0.45786,3.58426 -0.5418,7.03626 -0.18651,7.67113 1.17655,2.10238 7.1734,5.84959 9.07897,5.67312 1.28904,-0.11937 2.26125,-1.34442 3.11377,-3.92357 z m 22.1995,-45.91345 c 0,-5.623 -2.18928,-7.64731 -5.08142,-4.69854 -1.81104,1.84652 -1.80628,1.89542 0.57382,5.88513 1.32001,2.21273 2.87423,3.86507 3.45381,3.67187 0.58522,-0.19507 1.05379,-2.3554 1.05379,-4.85846 z m 1.20663,-12.93928 c 0.90259,-1.11751 4.16146,-12.60012 7.1541,-25.20739 1.71404,-7.22086 1.95994,-21.63572 0.4433,-25.98636 -1.79287,-5.14305 -10.92122,-7.28232 -19.76619,-4.63231 -4.51193,1.35181 -5.14451,2.46301 -8.44518,14.83504 -2.25858,8.46593 -2.6588,11.88818 -2.85941,24.45003 -0.16721,10.47081 0.0931,15.00385 0.91946,16.01047 1.51636,1.84718 21.11809,2.30825 22.55392,0.53052 z m -10.94484,-8.5201 c -5.16374,-6.22192 -1.64533,-35.16797 5.16141,-42.46301 3.48672,-3.73687 4.34033,-3.8586 5.95117,-0.84873 1.04325,1.94934 0.99776,2.50887 -0.31034,3.81696 -1.87372,1.87373 -1.93546,6.67199 -0.12653,9.83636 1.85013,3.23646 1.75457,3.66397 -1.05791,4.73328 -2.29323,0.87188 -2.41777,1.21169 -1.79527,4.89867 1.27017,7.52317 1.13898,8.62641 -1.06311,8.93995 -1.12272,0.15987 -2.55573,0.91052 -3.18448,1.66812 -0.92362,1.11289 -0.75664,1.7889 0.86942,3.51976 1.10693,1.17827 2.0126,2.81214 2.0126,3.63081 0,2.01301 -5.16338,3.82651 -6.45696,2.26783 z m 21.4028,-57.31467 c 1.29114,-2.65658 1.70254,-16.49535 0.64101,-21.5625 -0.21604,-1.03125 -0.6844,-4.61719 -1.04079,-7.96875 -1.01015,-9.49949 -2.07439,-12.69456 -4.6138,-13.85159 -3.60615,-1.64307 -8.72506,-2.34518 -12.26138,-1.68176 -2.98946,0.56083 -3.38995,1.03713 -4.72045,5.61386 -0.79961,2.75057 -2.28275,5.7512 -3.29588,6.66806 -1.1492,1.04002 -1.84205,2.87683 -1.84205,4.88348 0,1.76905 -0.71483,5.89914 -1.58852,9.17798 -1.40349,5.26714 -1.44242,6.70464 -0.33419,12.34137 1.87641,9.54382 1.37303,9.03375 8.39857,8.5102 3.39921,-0.25333 7.23508,-0.13044 8.52414,0.27307 1.28906,0.40352 4.23885,0.66063 6.55509,0.57137 3.67816,-0.14174 4.3844,-0.51836 5.57825,-2.97479 z m -13.10599,-4.72985 c -1.62368,-1.95642 -1.87064,-29.81058 -0.27853,-31.41605 0.83569,-0.8427 1.8827,-0.49908 4.45313,1.46147 3.65089,2.78467 4.13181,4.2835 1.9543,6.09068 -1.95491,1.62243 -1.75508,4.92867 0.46875,7.75582 1.93587,2.46106 2.50287,5.36918 1.04684,5.36918 -1.36521,0 -1.84875,3.47567 -1.0044,7.21944 0.55577,2.46419 0.45774,3.72736 -0.32802,4.2269 -1.86411,1.18508 -5.0365,0.82953 -6.31207,-0.70744 z m 11.77873,-47.02998 c -0.93768,-4.99831 -4.5736,-13.66268 -5.92202,-14.11215 -0.67442,-0.22481 -1.38922,0.81965 -1.73122,2.52967 -0.32039,1.60192 -0.96838,3.15106 -1.44,3.44253 -1.40037,0.86548 -3.42341,-1.42312 -4.08226,-4.61813 -0.33821,-1.64014 -1.45984,-5.82556 -2.49249,-9.3009 -1.24475,-4.189121 -1.69783,-7.664827 -1.34431,-10.312494 1.5175,-11.365174 1.77202,-18.524946 0.65854,-18.524946 -2.37027,0 -4.60518,1.943036 -5.63846,4.902085 -1.59978,4.581328 -2.43776,37.753665 -1.07873,42.702595 l 1.10144,4.01092 4.40984,-0.55649 c 3.1364,-0.39579 6.03418,-0.0144 10.03484,1.32069 8.03828,2.68257 8.29681,2.6316 7.52483,-1.48337 z M 425.625,102.65625 c 0,-2.39358 -1.27958,-3.128119 -2.3715,-1.36135 -0.77987,1.26185 0.14634,3.7051 1.40458,3.7051 0.53181,0 0.96692,-1.05469 0.96692,-2.34375 z m 3.2457,-5.859375 c -2.25081,-5.394144 -4.05733,-7.734375 -5.97047,-7.734375 -2.01035,0 -3.10395,3.080659 -2.27129,6.398231 0.55827,2.224331 4.77054,4.742159 8.05552,4.815079 1.54659,0.0343 1.5586,-0.19002 0.18624,-3.478935 z m -3.41781,-15 c -0.2124,-1.845943 -0.89569,-2.663205 -2.40602,-2.877704 -1.7022,-0.241753 -2.10937,0.15033 -2.10937,2.03125 0,2.255456 1.00462,3.196243 3.57789,3.350566 0.80541,0.0483 1.1311,-0.821634 0.9375,-2.504112 z M 423.75,73.125 c 0,-0.515625 -0.42188,-0.9375 -0.9375,-0.9375 -0.51563,0 -0.9375,0.421875 -0.9375,0.9375 0,0.515625 0.42187,0.9375 0.9375,0.9375 0.51562,0 0.9375,-0.421875 0.9375,-0.9375 z" id="path4166" inkscape:connector-curvature="0"/>
</svg>
